<svg width="521.36" height="197.37" viewBox="0 0 521.36 197.373" xmlns="http://www.w3.org/2000/svg"><defs><clipPath id="a"><path d="M0 148.03h391.02V0H0z"/></clipPath></defs><g clip-path="url(#a)" transform="matrix(1.3333 0 0 -1.3333 0 197.37)"><path d="M388.02 17.39c0-7.93-6.45-14.39-14.38-14.39H17.38C9.45 3 3 9.46 3 17.39v113.26c0 7.93 6.45 14.38 14.38 14.38h356.26c7.93 0 14.38-6.45 14.38-14.38zm-14.38 130.64H17.38C7.8 148.03 0 140.23 0 130.65V17.39C0 7.8 7.8 0 17.38 0h356.26c9.58 0 17.38 7.8 17.38 17.39v113.26c0 9.58-7.8 17.38-17.38 17.38" fill="#fff"/><path d="M388.02 130.65V17.39c0-7.93-6.45-14.39-14.38-14.39H17.38C9.45 3 3 9.46 3 17.39v113.26c0 7.93 6.45 14.38 14.38 14.38h356.26c7.93 0 14.38-6.45 14.38-14.38" fill="#3dcd58"/><path d="M155.54 97.53h-11.475c-1.289 0-3.252-.06-3.252 1.778 0 1.839 1.659 1.839 3.007 1.839h11.84c2.088 0 3.067 0 3.806-1.164.245-.37.245-.799.245-2.023V87.039c0-1.903 0-2.028-.489-2.517-.74-.86-7.549-6.01-17.49-6.01-14.417 0-22.27 9.322-22.27 22.455 0 12.759 7.488 22.945 21.661 22.945 5.395 0 10.795-1.414 14.292-5.461 1.903-2.208 3.377-5.275 3.377-6.384 0-1.713-1.534-2.023-1.963-2.023-.859 0-1.414.674-2.213 2.023-1.534 2.643-4.172 8.408-13.618 8.408-10.186 0-17.18-7.239-17.18-19.143 0-14.847 9.941-19.388 17.24-19.388 6.319 0 11.904 2.578 14.482 4.786zM172.44 81.58c0-1.229.185-3.067-1.838-3.067-2.149 0-1.904 1.838-1.904 3.067v27.485c0 1.224 0 2.758 1.659 2.758 1.653 0 1.653-1.534 1.653-2.758v-4.421c.8 2.333 2.393 7.119 7.424 7.119 2.088 0 5.769-1.104 5.769-3.007 0-1.164-.984-1.839-1.658-1.839-.185 0-2.208.615-2.393.675a6.284 6.284 0 0 1-1.838.245c-1.104 0-3.742-.125-5.585-4.232-1.039-2.333-1.289-8.777-1.289-9.386zM211.41 97.775c-.245 2.637-.979 10.92-9.937 10.92-7.363 0-9.94-7.119-10.37-10.92zm-20.367-3.067c.12-7.609 3.622-13.129 10.676-13.129 1.778 0 6.808.365 9.386 6.869.305.799.979 1.349 1.779 1.349 1.104 0 1.838-.919 1.838-1.719 0-1.039-2.573-9.566-13.128-9.566-9.877 0-14.477 7.239-14.477 16.625 0 10.001 5.155 16.625 14.477 16.625 13.558 0 13.742-13.862 13.742-14.417 0-2.637-1.593-2.637-3.497-2.637zM245.29 97.775c-.245 2.637-.979 10.92-9.936 10.92-7.363 0-9.941-7.119-10.371-10.92zm-20.367-3.067c.12-7.609 3.622-13.129 10.676-13.129 1.778 0 6.809.365 9.386 6.869.305.799.98 1.349 1.779 1.349 1.104 0 1.838-.919 1.838-1.719 0-1.039-2.572-9.566-13.128-9.566-9.876 0-14.477 7.239-14.477 16.625 0 10.001 5.155 16.625 14.477 16.625 13.558 0 13.743-13.862 13.743-14.417 0-2.637-1.594-2.637-3.497-2.637zM281.57 81.64c0-1.414 0-3.127-1.898-3.127-1.904 0-1.844 1.713-1.844 3.127v17.364c0 2.573-.184 4.906-1.288 6.5-1.289 1.903-3.617 3.007-6.135 3.007-3.497 0-7.179-2.148-8.832-5.645-.924-1.963-1.104-4.416-1.104-9.816V81.64c0-1.414.06-3.127-1.843-3.127-1.904 0-1.904 1.653-1.904 3.127v27.056c0 1.349 0 3.127 1.904 3.127 1.903 0 1.843-1.719 1.843-3.127v-2.333c1.838 2.333 4.291 5.4 10.246 5.4 4.905 0 7.423-2.208 8.462-3.372 2.333-2.638 2.393-6.504 2.393-8.407zM125.67 64.95V47.036h9.876c4.786 0 10.98 1.349 10.98 9.017 0 8.897-7.973 8.897-10.98 8.897zm11.04 3.802c5.83 0 8.777-1.654 10.556-3.497a13.08 13.08 0 0 0 3.616-9.077c0-5.4-3.187-12.764-14.172-12.764h-11.04V27.523c0-1.533-.065-3.431-2.088-3.431-2.083 0-2.083 1.838-2.083 3.431v37.732c0 3.497.549 3.497 4.106 3.497zM162.25 27.159c0-1.229.185-3.067-1.838-3.067-2.149 0-1.904 1.838-1.904 3.067v27.486c0 1.223 0 2.757 1.659 2.757 1.653 0 1.653-1.534 1.653-2.757v-4.422c.8 2.333 2.393 7.119 7.424 7.119 2.088 0 5.769-1.104 5.769-3.007 0-1.164-.984-1.839-1.658-1.839-.185 0-2.208.615-2.393.675a6.284 6.284 0 0 1-1.838.245c-1.104 0-3.742-.125-5.585-4.232-1.039-2.332-1.289-8.776-1.289-9.386zM201.22 43.354c-.245 2.638-.979 10.92-9.937 10.92-7.363 0-9.94-7.118-10.37-10.92zm-20.367-3.067c.12-7.608 3.622-13.129 10.676-13.129 1.778 0 6.808.365 9.386 6.869.305.8.979 1.349 1.779 1.349 1.104 0 1.838-.919 1.838-1.718 0-1.039-2.573-9.567-13.128-9.567-9.877 0-14.477 7.239-14.477 16.625 0 10.001 5.155 16.625 14.477 16.625 13.558 0 13.742-13.862 13.742-14.417 0-2.637-1.593-2.637-3.497-2.637zM254.25 27.159c0-1.354 0-3.067-1.903-3.067-1.839 0-1.839 1.653-1.839 3.067v17.425c0 3.801 0 9.566-6.504 9.566-7.483 0-8.587-7.358-8.587-13.678V27.034c0-1.289 0-2.942-1.778-2.942-1.784 0-1.964 1.653-1.964 3.002v17.919c0 3.313.245 9.017-6.074 9.017-6.445 0-9.022-5.89-9.022-12.209V27.279c0-1.409.065-3.187-1.839-3.187-1.903 0-1.903 1.713-1.903 3.127v26.996c0 1.349 0 3.127 1.903 3.127 1.904 0 1.839-1.658 1.839-3.067v-2.148c1.289 1.779 3.991 5.215 9.636 5.215 5.95 0 7.603-3.312 8.528-5.275 1.713 2.083 4.356 5.275 9.996 5.275 3.496 0 5.889-1.533 7.118-2.882 1.104-1.169 2.393-3.497 2.393-7.978zM267.7 27.159c0-1.354 0-3.067-1.838-3.067-1.904 0-1.904 1.653-1.904 3.067v27.056c0 1.409 0 3.127 1.904 3.127 1.838 0 1.838-1.838 1.838-3.127zm-1.838 36.318a2.396 2.396 0 0 0-2.393 2.393 2.359 2.359 0 0 0 2.393 2.393 2.396 2.396 0 0 0 2.393-2.393c0-1.289-1.104-2.393-2.393-2.393M276.92 54.215c0 1.349 0 3.127 1.903 3.127 1.899 0 1.839-1.718 1.839-3.127V36.91c0-2.572.185-4.965 1.289-6.564 1.288-1.898 3.621-2.942 6.134-2.942 3.497 0 7.179 2.083 8.837 5.645.859 1.898 1.104 4.416 1.104 9.816v11.35c0 1.349-.065 3.127 1.838 3.127 1.904 0 1.904-1.718 1.904-3.127V27.219c0-1.414 0-3.127-1.904-3.127-1.903 0-1.838 1.653-1.838 3.127v2.333c-1.843-2.393-4.296-5.46-10.246-5.46-4.845 0-7.423 2.268-8.467 3.372-2.453 2.578-2.393 6.564-2.393 8.407zM352.7 27.159c0-1.354 0-3.067-1.903-3.067-1.839 0-1.839 1.653-1.839 3.067v17.425c0 3.801 0 9.566-6.504 9.566-7.483 0-8.587-7.358-8.587-13.678V27.034c0-1.289 0-2.942-1.779-2.942-1.783 0-1.963 1.653-1.963 3.002v17.919c0 3.313.245 9.017-6.074 9.017-6.445 0-9.022-5.89-9.022-12.209V27.279c0-1.409.065-3.187-1.839-3.187-1.903 0-1.903 1.713-1.903 3.127v26.996c0 1.349 0 3.127 1.903 3.127 1.904 0 1.839-1.658 1.839-3.067v-2.148c1.288 1.779 3.991 5.215 9.636 5.215 5.95 0 7.603-3.312 8.527-5.275 1.719 2.083 4.356 5.275 9.996 5.275 3.502 0 5.89-1.533 7.119-2.882 1.104-1.169 2.393-3.497 2.393-7.978zM370.48 68.752l2.859-9.121 2.946 9.121h2.173v-11.41H377.2v10.181l-3.405-10.181h-.97l-3.204 10.181V57.342h-1.286v11.41zm-3.46 0v-1.229h-3.747V57.342h-1.402v10.181h-3.716v1.229zM89.363 76.497c-3.556 1.709-6.857 2.253-11.292 2.714l-.125.007-64.001 5.251a1.58 1.58 0 0 1-1.215-.877 1.58 1.58 0 0 1 .034-1.495l41.402-45.808.057.115 2.077-2.468a27.364 27.364 0 0 1 9.171-7.126c13.699-6.585 30.204-.801 36.789 12.898 6.586 13.699.801 30.202-12.897 36.789M103.92 123.83a1.581 1.581 0 0 1-1.49-.164L75.908 95.348l29.065-24.914-.075 52.266a1.579 1.579 0 0 1-.978 1.13M83.661 83.075l-41.685 35.464a1.579 1.579 0 0 1-1.499-.006 1.58 1.58 0 0 1-.844-1.234l3.437-30.594z" fill="#fff"/></g></svg>